<?xml version="1.0" encoding="UTF-8"?>
<!DOCTYPE svg PUBLIC "-//W3C//DTD SVG 1.1//EN" "http://www.w3.org/Graphics/SVG/1.1/DTD/svg11.dtd">
<svg version="1.1" xmlns="http://www.w3.org/2000/svg" xmlns:xlink="http://www.w3.org/1999/xlink" x="0" y="0" width="446.292" height="128.404" viewBox="0, 0, 446.292, 128.404">
  <g id="Layer_1">
    <path d="M239.281,97.418 C232.656,96.68 225.66,97.051 219.035,96.312 C191.426,93.367 164.184,90.422 136.574,89.688 C110.43,89.016 84.281,87.125 58.137,86.156 C56.219,96.367 55.219,106.898 55.219,117.664 L395.281,117.664 C395.281,107.844 394.441,98.223 392.84,88.859 C385.559,91.047 378.082,92.777 370.336,94.102 C326.16,101.098 283.457,102.57 239.281,97.418" fill="#F19D3E"/>
    <path d="M137.27,82.324 L140.028,82.324 L140.028,85.269 L137.27,85.269 z" fill="#FAED42"/>
    <path d="M140.949,86.188 L143.711,86.188 L143.711,89.133 L140.949,89.133 z" fill="#FAED42"/>
    <path d="M147.301,86.188 L150.063,86.188 L150.063,89.133 L147.301,89.133 z" fill="#FAED42"/>
    <path d="M144.355,82.324 L147.117,82.324 L147.117,85.269 L144.355,85.269 z" fill="#FAED42"/>
    <path d="M137.27,89.688 L140.028,89.688 L140.028,92.633 L137.27,92.633 z" fill="#FAED42"/>
    <path d="M140.949,93.551 L143.711,93.551 L143.711,96.496 L140.949,96.496 z" fill="#FAED42"/>
    <path d="M145.09,104.598 L147.852,104.598 L147.852,107.539 L145.09,107.539 z" fill="#FAED42"/>
    <path d="M147.301,97.234 L150.063,97.234 L150.063,100.179 L147.301,100.179 z" fill="#FAED42"/>
    <path d="M149.23,91.621 L151.992,91.621 L151.992,94.562 L149.23,94.562 z" fill="#FAED42"/>
    <path d="M137.27,97.234 L140.028,97.234 L140.028,100.179 L137.27,100.179 z" fill="#FAED42"/>
    <path d="M140.949,101.098 L143.711,101.098 L143.711,104.043 L140.949,104.043 z" fill="#FAED42"/>
    <path d="M187.68,82.508 L190.957,82.508 L190.957,85.906 L187.68,85.906 z" fill="#FAED42"/>
    <path d="M194.258,87.109 L197.535,87.109 L197.535,90.507 L194.258,90.507 z" fill="#FAED42"/>
    <path d="M189.145,96.496 L192.418,96.496 L192.418,99.894 L189.145,99.894 z" fill="#FAED42"/>
    <path d="M199.363,100.363 L202.64,100.363 L202.64,103.761 L199.363,103.761 z" fill="#FAED42"/>
    <path d="M201,91.895 L204.277,91.895 L204.277,95.293 L201,95.293 z" fill="#FAED42"/>
    <path d="M48.195,89.613 L50.113,89.613 L50.113,91.629 L48.195,91.629 z" fill="#FAED42"/>
    <path d="M52.789,92.895 L54.707,92.895 L54.707,94.911 L52.789,94.911 z" fill="#FAED42"/>
    <path d="M48.195,100.496 L50.113,100.496 L50.113,102.512 L48.195,102.512 z" fill="#FAED42"/>
    <path d="M56.473,103.629 L58.395,103.629 L58.395,105.645 L56.473,105.645 z" fill="#FAED42"/>
    <path d="M57.801,96.77 L59.719,96.77 L59.719,98.786 L57.801,98.786 z" fill="#FAED42"/>
    <path d="M348.23,83.062 L351.507,83.062 L351.507,86.457 L348.23,86.457 z" fill="#FAED42"/>
    <path d="M353.348,87.109 L356.625,87.109 L356.625,90.507 L353.348,90.507 z" fill="#FAED42"/>
    <path d="M348.23,96.496 L351.507,96.496 L351.507,99.894 L348.23,99.894 z" fill="#FAED42"/>
    <path d="M358.453,100.363 L361.73,100.363 L361.73,103.761 L358.453,103.761 z" fill="#FAED42"/>
    <path d="M360.09,91.895 L363.367,91.895 L363.367,95.293 L360.09,95.293 z" fill="#FAED42"/>
    <path d="M110.457,54.469 L112.684,54.469 L112.684,54.574 L110.457,54.574 z" fill="#FAED42"/>
    <path d="M398.383,89.613 L400.301,89.613 L400.301,91.629 L398.383,91.629 z" fill="#FAED42"/>
    <path d="M403.453,92.895 L405.371,92.895 L405.371,94.911 L403.453,94.911 z" fill="#FAED42"/>
    <path d="M407.988,89.02 L409.906,89.02 L409.906,91.036 L407.988,91.036 z" fill="#FAED42"/>
    <path d="M398.383,100.496 L400.301,100.496 L400.301,102.512 L398.383,102.512 z" fill="#FAED42"/>
    <path d="M407.988,96.77 L409.906,96.77 L409.906,98.786 L407.988,98.786 z" fill="#FAED42"/>
    <path d="M406.66,103.629 L408.578,103.629 L408.578,105.645 L406.66,105.645 z" fill="#FAED42"/>
    <path d="M399.113,107.148 L401.031,107.148 L401.031,109.16 L399.113,109.16 z" fill="#FAED42"/>
    <path d="M303.582,87.555 L304.746,87.555 L304.746,88.762 L303.582,88.762 z" fill="#FAED42"/>
    <path d="M308.336,92.555 L309.504,92.555 L309.504,93.762 L308.336,93.762 z" fill="#FAED42"/>
    <path d="M303,96.629 L304.164,96.629 L304.164,97.836 L303,97.836 z" fill="#FAED42"/>
    <path d="M308.062,99.574 L309.226,99.574 L309.226,100.781 L308.062,100.781 z" fill="#FAED42"/>
    <path d="M301.188,102.957 L302.356,102.957 L302.356,104.164 L301.188,104.164 z" fill="#FAED42"/>
    <path d="M301.188,92.273 L302.356,92.273 L302.356,93.48 L301.188,93.48 z" fill="#FAED42"/>
    <path d="M308.918,86.949 L310.086,86.949 L310.086,88.156 L308.918,88.156 z" fill="#FAED42"/>
    <path d="M299.84,83.387 L301.004,83.387 L301.004,84.594 L299.84,84.594 z" fill="#FAED42"/>
    <path d="M77.734,22.836 C77.336,22.836 77.012,23.16 77.012,23.559 C77.012,23.961 77.336,24.281 77.734,24.281 C78.137,24.281 78.461,23.961 78.461,23.559 C78.461,23.16 78.137,22.836 77.734,22.836" fill="#FAED42"/>
    <path d="M84.484,22.836 C84.086,22.836 83.762,23.16 83.762,23.559 C83.762,23.961 84.086,24.281 84.484,24.281 C84.883,24.281 85.211,23.961 85.211,23.559 C85.211,23.16 84.883,22.836 84.484,22.836" fill="#FAED42"/>
    <path d="M90.129,24.281 C90.531,24.281 90.852,23.961 90.852,23.559 C90.852,23.16 90.531,22.836 90.129,22.836 C89.73,22.836 89.406,23.16 89.406,23.559 C89.406,23.961 89.73,24.281 90.129,24.281" fill="#FAED42"/>
    <path d="M92.723,24.281 C93.121,24.281 93.445,23.961 93.445,23.559 C93.445,23.16 93.121,22.836 92.723,22.836 C92.324,22.836 92,23.16 92,23.559 C92,23.961 92.324,24.281 92.723,24.281" fill="#FAED42"/>
    <path d="M20.055,100.629 L44.09,100.629 L44.09,112.688 L20.055,112.688 z" fill="#F5F5F5"/>
    <path d="M31.176,91.391 L46.914,91.391 L46.914,98.317 L31.176,98.317 z" fill="#F5F5F5"/>
    <path d="M109.098,57.262 L128.688,57.262 L128.688,106.016 L109.098,106.016 z" fill="#F5F5F5"/>
    <path d="M160.594,51.785 L184.199,51.785 L184.199,112.687 L160.594,112.687 z" fill="#F5F5F5"/>
    <path d="M210.805,28.434 L239.715,28.434 L239.715,106.274 L210.805,106.274 z" fill="#F5F5F5"/>
    <path d="M249.379,54.523 L286.246,54.523 L286.246,112.089 L249.379,112.089 z" fill="#F5F5F5"/>
    <path d="M311.137,57.688 L335.004,57.688 L335.004,102.938 L311.137,102.938 z" fill="#F5F5F5"/>
    <path d="M369.391,100.543 L393.512,100.543 L393.512,113.031 L369.391,113.031 z" fill="#F5F5F5"/>
    <path d="M380.863,92.691 L393.511,92.691 L393.511,100.543 L380.863,100.543 z" fill="#F5F5F5"/>
    <path d="M411.645,100.027 L435.083,100.027 L435.083,112.515 L411.645,112.515 z" fill="#F5F5F5"/>
    <path d="M300.195,77.695 L310.05,77.695 L310.05,81.383 L300.195,81.383 z" fill="#F5F5F5"/>
    <path d="M336.25,109.996 L341.941,109.996 L341.941,109.195 L336.25,109.195 z M301.188,103.145 L301.188,104.164 L302.355,104.164 L302.355,102.957 L301.188,102.957 z M301.188,92.434 L301.188,93.48 L302.355,93.48 L302.355,92.273 L301.188,92.273 z M299.84,84.305 L299.84,84.594 L301.004,84.594 L301.004,83.387 L299.84,83.387 z M301.129,80.238 L309.316,80.238 L309.316,78.461 L301.129,78.461 z M312.828,97.996 L316.648,97.996 L316.648,94.039 L312.828,94.039 z M312.828,75.125 L316.648,75.125 L316.648,71.164 L312.828,71.164 z M312.828,63.688 L316.648,63.688 L316.648,59.727 L312.828,59.727 z M312.828,69.406 L316.648,69.406 L316.648,65.445 L312.828,65.445 z M312.828,80.844 L316.648,80.844 L316.648,76.883 L312.828,76.883 z M312.828,92.277 L316.648,92.277 L316.648,88.32 L312.828,88.32 z M312.828,86.562 L316.648,86.562 L316.648,82.602 L312.828,82.602 z M318.328,63.688 L322.145,63.688 L322.145,59.727 L318.328,59.727 z M318.328,69.406 L322.145,69.406 L322.145,65.445 L318.328,65.445 z M318.328,75.125 L322.145,75.125 L322.145,71.164 L318.328,71.164 z M318.328,80.844 L322.145,80.844 L322.145,76.883 L318.328,76.883 z M318.328,86.562 L322.145,86.562 L322.145,82.602 L318.328,82.602 z M318.328,97.996 L322.148,97.996 L322.148,94.039 L318.328,94.039 z M318.328,92.277 L322.145,92.277 L322.145,88.32 L318.328,88.32 z M329.328,63.688 L333.145,63.688 L333.145,59.727 L329.328,59.727 z M329.328,97.996 L333.145,97.996 L333.145,94.039 L329.328,94.039 z M329.328,92.277 L333.145,92.277 L333.145,88.32 L329.328,88.32 z M329.328,86.562 L333.145,86.562 L333.145,82.602 L329.328,82.602 z M329.328,80.844 L333.145,80.844 L333.145,76.883 L329.328,76.883 z M329.328,69.406 L333.145,69.406 L333.145,65.445 L329.328,65.445 z M329.328,75.125 L333.145,75.125 L333.145,71.164 L329.328,71.164 z M323.828,97.996 L327.645,97.996 L327.645,94.039 L323.828,94.039 z M323.828,92.277 L327.645,92.277 L327.645,88.32 L323.828,88.32 z M323.828,86.562 L327.645,86.562 L327.645,82.602 L323.828,82.602 z M323.828,80.844 L327.645,80.844 L327.645,76.883 L323.828,76.883 z M323.828,75.125 L327.645,75.125 L327.645,71.164 L323.828,71.164 z M323.828,63.688 L327.645,63.688 L327.645,59.727 L323.828,59.727 z M323.828,69.406 L327.645,69.406 L327.645,65.445 L323.828,65.445 z M309.727,88.156 L310.086,88.156 L310.086,86.949 L308.918,86.949 L308.918,88.156 z M308.336,93.762 L309.504,93.762 L309.504,92.555 L308.336,92.555 z M308.062,100.781 L309.227,100.781 L309.227,99.574 L308.062,99.574 z M303,97.836 L304.164,97.836 L304.164,96.629 L303,96.629 z M303.582,88.762 L304.746,88.762 L304.746,87.555 L303.582,87.555 z M360.09,95.293 L363.367,95.293 L363.367,91.895 L360.09,91.895 z M372.273,103.676 L392.336,103.676 L392.336,103.125 L372.273,103.125 z M382.336,97.234 L392.922,97.234 L392.922,96.25 L382.336,96.25 z M382.336,93.676 L392.922,93.676 L392.922,92.691 L382.336,92.691 z M413.246,103.676 L433.285,103.676 L433.285,103.125 L413.246,103.125 z M413.246,109.996 L433.281,109.996 L433.281,109.441 L413.246,109.441 z M407.988,91.035 L409.906,91.035 L409.906,89.02 L407.988,89.02 z M407.988,98.785 L409.906,98.785 L409.906,96.77 L407.988,96.77 z M406.66,105.645 L408.578,105.645 L408.578,103.629 L406.66,103.629 z M403.453,94.91 L405.371,94.91 L405.371,92.895 L403.453,92.895 z M398.383,91.629 L400.301,91.629 L400.301,89.613 L398.383,89.613 z M399.113,109.16 L401.031,109.16 L401.031,107.148 L399.113,107.148 z M398.383,102.512 L400.301,102.512 L400.301,100.496 L398.383,100.496 z M413.246,106.867 L433.281,106.867 L433.281,106.254 L413.246,106.254 z M372.273,109.996 L392.336,109.996 L392.336,109.258 L375.609,109.258 L375.609,107.051 L392.336,107.051 L392.336,106.254 L372.273,106.254 z M348.23,99.895 L351.508,99.895 L351.508,96.496 L348.23,96.496 z M348.23,86.457 L351.508,86.457 L351.508,83.062 L348.23,83.062 z M353.348,90.508 L356.625,90.508 L356.625,87.109 L353.348,87.109 z M358.453,103.762 L361.73,103.762 L361.73,100.363 L358.453,100.363 z M207.945,109.996 L209.789,109.996 L209.789,109.336 L207.945,109.336 z M104.504,103.348 L104.504,109.996 L107.879,109.996 L107.879,71.281 C105.934,70.312 103.922,69.43 101.848,68.641 L101.848,69.707 L91.125,69.707 C91.164,70.207 91.195,70.703 91.227,71.199 L102.379,71.199 L102.379,77.906 L91.473,77.906 C91.473,78.352 91.473,78.797 91.465,79.238 L102.91,79.238 L102.91,86.109 L91.156,86.109 C91.137,86.352 91.125,86.602 91.105,86.844 C91.094,86.988 91.078,87.129 91.066,87.273 L103.441,87.273 L103.441,94.309 L90.34,94.309 C90.297,94.645 90.258,94.984 90.211,95.312 L103.973,95.312 L103.973,102.512 L89.066,102.512 C89.016,102.797 88.961,103.074 88.906,103.348 z M63.062,85.699 L63.062,109.996 L67.141,109.996 L67.141,103.348 L82.922,103.348 C82.871,103.074 82.816,102.797 82.762,102.512 L67.672,102.512 L67.672,95.312 L81.617,95.312 C81.57,94.984 81.531,94.645 81.492,94.309 L68.203,94.309 L68.203,87.273 L80.762,87.273 C80.75,87.129 80.738,86.988 80.727,86.844 C80.707,86.602 80.691,86.352 80.672,86.109 L68.734,86.109 L68.734,79.238 L80.363,79.238 C80.359,78.797 80.355,78.352 80.355,77.906 L69.266,77.906 L69.266,71.199 L80.602,71.199 C80.633,70.703 80.664,70.207 80.703,69.707 L69.797,69.707 L69.797,64.52 C47.066,66.801 28.121,79.723 20.094,97.234 L30.676,97.234 L30.676,96.25 L29.82,96.25 L29.82,93.676 L30.676,93.676 L30.676,92.691 L29.82,92.691 L29.82,90.117 L42.734,90.117 L42.734,85.699 L46.645,85.699 L46.645,82.273 L58.762,82.273 L58.762,85.699 z M22.09,103.676 L42.148,103.676 L42.148,103.125 L22.09,103.125 z M56.473,105.645 L58.395,105.645 L58.395,103.629 L56.473,103.629 z M57.801,98.785 L59.719,98.785 L59.719,96.77 L57.801,96.77 z M52.789,94.91 L54.707,94.91 L54.707,92.895 L52.789,92.895 z M48.195,102.512 L50.113,102.512 L50.113,100.496 L48.195,100.496 z M48.195,91.629 L50.113,91.629 L50.113,89.613 L48.195,89.613 z M22.09,109.996 L42.148,109.996 L42.148,109.441 L22.09,109.441 z M22.09,106.867 L42.148,106.867 L42.148,106.254 L22.09,106.254 z M32.148,93.676 L42.734,93.676 L42.734,92.691 L32.148,92.691 z M32.148,97.234 L42.734,97.234 L42.734,96.25 L32.148,96.25 z M120.609,77.812 C121.121,78.238 121.625,78.668 122.121,79.105 L124.23,79.105 L124.23,76.25 L120.609,76.25 z M124.566,60.91 L128.188,60.91 L128.188,57.871 L124.566,57.871 z M129.477,81.078 L129.477,87.012 C131.352,89.473 132.996,92.074 134.383,94.789 L134.969,94.789 L134.969,81.078 z M137.27,100.18 L140.027,100.18 L140.027,97.234 L137.27,97.234 z M137.27,92.633 L140.027,92.633 L140.027,89.688 L137.27,89.688 z M137.27,85.27 L140.027,85.27 L140.027,82.324 L137.27,82.324 z M149.23,94.562 L151.992,94.562 L151.992,91.621 L149.23,91.621 z M154.109,98.789 L159.664,98.789 L159.664,90.055 L154.109,90.055 z M162.422,55.695 L166.043,55.695 L166.043,52.426 L162.422,52.426 z M166.625,55.695 L170.246,55.695 L170.246,52.426 L166.625,52.426 z M170.828,55.695 L174.449,55.695 L174.449,52.426 L170.828,52.426 z M175.031,55.695 L178.652,55.695 L178.652,52.426 L175.031,52.426 z M179.234,55.695 L182.855,55.695 L182.855,52.426 L179.234,52.426 z M162.422,92.961 L166.043,92.961 L166.043,89.961 L162.422,89.961 z M162.422,88.492 L166.043,88.492 L166.043,85.352 L162.422,85.352 z M162.422,84.727 L166.043,84.727 L166.043,77.121 L162.422,77.121 z M162.422,60.035 L166.043,60.035 L166.043,57.168 L162.422,57.168 z M166.625,60.035 L170.246,60.035 L170.246,57.168 L166.625,57.168 z M170.828,60.035 L174.449,60.035 L174.449,57.168 L170.828,57.168 z M175.031,60.035 L178.652,60.035 L178.652,57.168 L175.031,57.168 z M179.234,60.035 L182.855,60.035 L182.855,57.168 L179.234,57.168 z M179.234,109.426 L182.855,109.426 L182.855,106.297 L179.234,106.297 z M175.031,109.426 L178.652,109.426 L178.652,106.297 L175.031,106.297 z M170.828,109.426 L174.449,109.426 L174.449,106.297 L170.828,106.297 z M166.625,109.426 L170.246,109.426 L170.246,106.297 L166.625,106.297 z M162.422,109.426 L166.043,109.426 L166.043,106.297 L162.422,106.297 z M162.422,104.82 L166.043,104.82 L166.043,101.816 L162.422,101.816 z M162.422,101.191 L166.043,101.191 L166.043,93.582 L162.422,93.582 z M166.625,92.961 L170.246,92.961 L170.246,89.961 L166.625,89.961 z M166.625,88.492 L170.246,88.492 L170.246,85.352 L166.625,85.352 z M166.625,84.727 L170.246,84.727 L170.246,77.121 L166.625,77.121 z M166.625,76.496 L170.246,76.496 L170.246,68.891 L166.625,68.891 z M166.625,68.266 L170.246,68.266 L170.246,60.656 L166.625,60.656 z M170.828,88.492 L174.449,88.492 L174.449,85.352 L170.828,85.352 z M170.828,76.496 L174.449,76.496 L174.449,68.891 L170.828,68.891 z M170.828,68.266 L174.449,68.266 L174.449,60.656 L170.828,60.656 z M175.031,88.492 L178.652,88.492 L178.652,85.352 L175.031,85.352 z M175.031,84.727 L178.652,84.727 L178.652,77.121 L175.031,77.121 z M175.031,76.496 L178.652,76.496 L178.652,68.891 L175.031,68.891 z M175.031,68.266 L178.652,68.266 L178.652,60.656 L175.031,60.656 z M179.234,92.961 L182.855,92.961 L182.855,89.961 L179.234,89.961 z M179.234,101.191 L182.855,101.191 L182.855,93.582 L179.234,93.582 z M179.234,104.82 L182.855,104.82 L182.855,101.816 L179.234,101.816 z M175.031,104.82 L178.652,104.82 L178.652,101.816 L175.031,101.816 z M170.828,104.82 L174.449,104.82 L174.449,101.816 L170.828,101.816 z M166.625,101.191 L170.246,101.191 L170.246,93.582 L166.625,93.582 z M166.625,104.82 L170.246,104.82 L170.246,101.816 L166.625,101.816 z M170.828,92.961 L174.449,92.961 L174.449,89.961 L170.828,89.961 z M175.031,101.191 L178.652,101.191 L178.652,93.582 L175.031,93.582 z M175.031,92.961 L178.652,92.961 L178.652,89.961 L175.031,89.961 z M179.234,88.492 L182.855,88.492 L182.855,85.352 L179.234,85.352 z M179.234,84.727 L182.855,84.727 L182.855,77.121 L179.234,77.121 z M179.234,76.496 L182.855,76.496 L182.855,68.891 L179.234,68.891 z M162.422,68.266 L166.043,68.266 L166.043,60.656 L162.422,60.656 z M154.109,109.996 L159.57,109.996 L159.57,101 L154.109,101 z M140.949,104.043 L143.711,104.043 L143.711,101.098 L140.949,101.098 z M140.949,96.496 L143.711,96.496 L143.711,93.551 L140.949,93.551 z M140.949,89.133 L143.711,89.133 L143.711,86.188 L140.949,86.188 z M147.301,89.133 L150.062,89.133 L150.062,86.188 L147.301,86.188 z M147.301,100.18 L150.062,100.18 L150.062,97.234 L147.301,97.234 z M144.355,85.27 L147.117,85.27 L147.117,82.324 L144.355,82.324 z M145.09,107.539 L147.852,107.539 L147.852,104.598 L145.09,104.598 z M111.5,89.453 L115.117,89.453 L115.117,86.496 L111.5,86.496 z M111.07,104.637 L114.688,104.637 L114.688,102.062 L111.07,102.062 z M111.07,100.219 L114.688,100.219 L114.688,97.031 L111.07,97.031 z M111.5,84.656 L115.117,84.656 L115.117,81.844 L111.5,81.844 z M120.609,74.41 L124.23,74.41 L124.23,71.5 L120.609,71.5 z M124.566,65.48 L128.188,65.48 L128.188,62.754 L124.566,62.754 z M132.73,94.789 C131.762,92.969 130.676,91.203 129.477,89.496 L129.477,94.789 z M133.473,96.262 L130.211,96.262 L130.211,103.957 L134.969,103.957 L134.969,99.668 C134.516,98.516 134.016,97.379 133.473,96.262 M122.422,99.148 L126.039,99.148 L126.039,96.445 L122.422,96.445 z M122.422,94.605 L126.039,94.605 L126.039,91.539 L122.422,91.539 z M130.211,107.125 L134.969,107.125 L134.969,106.168 L130.211,106.168 z M130.211,109.996 L134.969,109.996 L134.969,109.336 L130.211,109.336 z M187.68,85.906 L190.957,85.906 L190.957,82.508 L187.68,82.508 z M201,95.293 L204.277,95.293 L204.277,91.895 L201,91.895 z M189.145,99.895 L192.418,99.895 L192.418,96.496 L189.145,96.496 z M194.258,90.508 L197.535,90.508 L197.535,87.109 L194.258,87.109 z M199.363,103.762 L202.641,103.762 L202.641,100.363 L199.363,100.363 z M207.945,107.125 L209.789,107.125 L209.789,106.168 L207.945,106.168 z M212.242,103.77 L217.211,103.77 L217.211,98.613 L212.242,98.613 z M212.242,96.324 L217.211,96.324 L217.211,91.172 L212.242,91.172 z M212.242,88.883 L217.211,88.883 L217.211,83.727 L212.242,83.727 z M212.242,73.996 L217.211,73.996 L217.211,68.844 L212.242,68.844 z M212.242,59.109 L217.211,59.109 L217.211,53.957 L212.242,53.957 z M212.242,51.664 L217.211,51.664 L217.211,46.512 L212.242,46.512 z M212.242,36.781 L217.211,36.781 L217.211,31.625 L212.242,31.625 z M219.402,96.324 L224.371,96.324 L224.371,91.172 L219.402,91.172 z M219.402,81.441 L224.371,81.441 L224.371,76.285 L219.402,76.285 z M219.402,66.555 L224.371,66.555 L224.371,61.398 L219.402,61.398 z M219.402,51.664 L224.371,51.664 L224.371,46.512 L219.402,46.512 z M219.402,44.223 L224.371,44.223 L224.371,39.07 L219.402,39.07 z M219.402,36.781 L224.371,36.781 L224.371,31.625 L219.402,31.625 z M226.559,103.77 L231.527,103.77 L231.527,98.613 L226.559,98.613 z M226.559,96.324 L231.527,96.324 L231.527,91.172 L226.559,91.172 z M226.559,88.883 L231.527,88.883 L231.527,83.727 L226.559,83.727 z M226.559,81.441 L231.527,81.441 L231.527,76.285 L226.559,76.285 z M226.559,73.996 L231.527,73.996 L231.527,68.844 L226.559,68.844 z M226.559,66.555 L231.527,66.555 L231.527,61.398 L226.559,61.398 z M226.559,59.109 L231.527,59.109 L231.527,53.957 L226.559,53.957 z M226.559,51.664 L231.527,51.664 L231.527,46.512 L226.559,46.512 z M233.719,103.77 L238.688,103.77 L238.688,98.613 L233.719,98.613 z M233.719,88.883 L238.688,88.883 L238.688,83.727 L233.719,83.727 z M233.719,81.441 L238.688,81.441 L238.688,76.285 L233.719,76.285 z M233.719,66.555 L238.688,66.555 L238.688,61.398 L233.719,61.398 z M233.719,59.109 L238.688,59.109 L238.688,53.957 L233.719,53.957 z M233.719,44.223 L238.688,44.223 L238.688,39.07 L233.719,39.07 z M233.719,36.781 L238.688,36.781 L238.688,31.625 L233.719,31.625 z M241.891,93.066 L247.473,93.066 L247.473,86.23 L241.891,86.23 z M250.699,101.652 L257.25,101.652 L257.25,98.008 L250.699,98.008 z M250.699,64.801 L257.25,64.801 L257.25,61.156 L250.699,61.156 z M250.699,59.535 L257.25,59.535 L257.25,55.891 L250.699,55.891 z M250.699,75.328 L257.25,75.328 L257.25,71.684 L250.699,71.684 z M260.137,106.918 L266.688,106.918 L266.688,103.273 L260.137,103.273 z M260.137,101.652 L266.688,101.652 L266.688,98.008 L260.137,98.008 z M260.137,91.125 L266.688,91.125 L266.688,87.477 L260.137,87.477 z M260.137,80.594 L266.688,80.594 L266.688,76.949 L260.137,76.949 z M260.137,75.328 L266.688,75.328 L266.688,71.684 L260.137,71.684 z M260.137,64.801 L266.688,64.801 L266.688,61.156 L260.137,61.156 z M269.574,106.918 L276.129,106.918 L276.129,103.273 L269.574,103.273 z M269.574,96.387 L276.129,96.387 L276.129,92.742 L269.574,92.742 z M269.574,85.859 L276.129,85.859 L276.129,82.215 L269.574,82.215 z M269.574,80.594 L276.129,80.594 L276.129,76.949 L269.574,76.949 z M269.574,75.328 L276.129,75.328 L276.129,71.684 L269.574,71.684 z M269.574,64.801 L276.129,64.801 L276.129,61.156 L269.574,61.156 z M269.574,59.535 L276.129,59.535 L276.129,55.891 L269.574,55.891 z M279.012,106.918 L285.566,106.918 L285.566,103.273 L279.012,103.273 z M279.012,96.387 L285.566,96.387 L285.566,92.742 L279.012,92.742 z M279.012,85.859 L285.566,85.859 L285.566,82.215 L279.012,82.215 z M279.012,80.594 L285.566,80.594 L285.566,76.949 L279.012,76.949 z M279.012,70.062 L285.566,70.062 L285.566,66.418 L279.012,66.418 z M279.012,59.535 L285.566,59.535 L285.566,55.891 L279.012,55.891 z M250.699,80.594 L257.25,80.594 L257.25,76.949 L250.699,76.949 z M250.699,91.125 L257.25,91.125 L257.25,87.477 L250.699,87.477 z M241.891,109.996 L247.473,109.996 L247.473,96.012 L241.891,96.012 z M83.762,23.559 C83.762,23.961 84.086,24.281 84.484,24.281 C84.883,24.281 85.211,23.961 85.211,23.559 C85.211,23.16 84.883,22.836 84.484,22.836 C84.086,22.836 83.762,23.16 83.762,23.559 M78.461,23.559 C78.461,23.16 78.137,22.836 77.734,22.836 C77.336,22.836 77.012,23.16 77.012,23.559 C77.012,23.961 77.336,24.281 77.734,24.281 C78.137,24.281 78.461,23.961 78.461,23.559 M89.406,23.559 C89.406,23.961 89.73,24.281 90.129,24.281 C90.531,24.281 90.852,23.961 90.852,23.559 C90.852,23.16 90.531,22.836 90.129,22.836 C89.73,22.836 89.406,23.16 89.406,23.559 M92,23.559 C92,23.961 92.324,24.281 92.723,24.281 C93.121,24.281 93.445,23.961 93.445,23.559 C93.445,23.16 93.121,22.836 92.723,22.836 C92.324,22.836 92,23.16 92,23.559 M446.293,109.996 L446.293,128.406 L0,128.406 L0,109.996 L8.957,109.996 L8.957,97.234 L10.43,97.234 L10.43,109.996 L14.887,109.996 C15.172,107.82 15.613,105.68 16.195,103.586 L16.195,97.234 L18.48,97.234 C27.395,77.07 50.27,62.688 77.012,62.688 C78.438,62.688 79.848,62.73 81.246,62.809 C81.277,62.375 81.309,61.941 81.34,61.508 L70.332,61.508 L70.332,55.125 L81.715,55.125 C81.742,54.516 81.773,53.91 81.801,53.305 L70.863,53.305 L70.863,47.09 L82.117,47.09 C82.137,46.723 82.152,46.352 82.172,45.988 C82.188,45.691 82.203,45.398 82.219,45.105 L71.395,45.105 L71.395,39.051 L82.566,39.051 C82.609,38.328 82.652,37.613 82.695,36.902 L71.926,36.902 L71.926,31.012 L83.074,31.012 C83.129,30.168 83.184,29.336 83.238,28.512 C76.113,28.094 70.699,26.035 70.699,23.559 C70.699,21.004 76.461,18.895 83.918,18.574 C83.941,18.273 83.961,17.961 83.984,17.668 C84.164,15.016 84.363,12.586 84.523,10.434 C84.688,8.281 84.836,6.402 84.965,4.859 C85.23,1.766 85.383,-0 85.383,-0 L86.449,-0 C86.449,-0 86.598,1.766 86.863,4.859 C86.996,6.402 87.145,8.281 87.305,10.434 C87.465,12.586 87.664,15.016 87.848,17.668 C87.867,17.961 87.891,18.273 87.91,18.574 C95.371,18.895 101.129,21.004 101.129,23.559 C101.129,26.035 95.719,28.094 88.594,28.512 C88.645,29.336 88.699,30.168 88.754,31.012 L99.719,31.012 L99.719,36.902 L89.137,36.902 C89.18,37.613 89.223,38.328 89.266,39.051 L100.25,39.051 L100.25,45.105 L89.609,45.105 C89.625,45.398 89.641,45.691 89.656,45.988 C89.676,46.352 89.691,46.723 89.715,47.09 L100.781,47.09 L100.781,53.305 L90.027,53.305 C90.059,53.91 90.086,54.516 90.117,55.125 L101.312,55.125 L101.312,61.508 L90.488,61.508 C90.527,62.059 90.57,62.613 90.613,63.164 L101.848,63.164 L101.848,67.074 C103.918,67.84 105.93,68.695 107.879,69.645 L107.879,56.309 L112.684,56.309 L112.684,54.469 L107.879,54.469 L107.879,52.066 L110.457,52.066 L110.457,49.004 L113.277,49.004 L113.277,41.688 L116.16,41.688 L116.16,32.398 L121.684,32.398 L121.684,41.688 L124.566,41.688 L124.566,49.004 L127.023,49.004 L127.023,52.066 L129.477,52.066 L129.477,80.344 L134.969,80.344 L134.969,77.723 L138.648,77.723 L138.648,73.488 L150.062,73.488 L150.062,77.723 L154.109,77.723 L154.109,89.32 L159.664,89.32 L159.664,50.156 L162.879,50.156 L162.879,51.258 L182.898,51.258 L182.898,50.156 L185.676,50.156 L185.676,78.684 L187.68,78.684 L187.68,74.453 L202.641,74.453 L202.641,78.684 L207.945,78.684 L207.945,103.957 L209.789,103.957 L209.789,25.309 L211.508,25.309 L211.508,19.539 L213.223,19.539 L213.223,16.84 L223.777,16.84 L223.777,19.539 L227.215,19.539 L227.215,16.84 L237.766,16.84 L237.766,19.539 L238.75,19.539 L238.75,25.309 L240.711,25.309 L240.711,83.285 L247.707,83.285 L247.707,52.656 L249.973,52.656 L249.973,48.578 L252.238,48.578 L252.238,46.668 L265.18,46.668 L265.18,48.578 L270.68,48.578 L270.68,46.668 L283.625,46.668 L283.625,48.578 L284.918,48.578 L284.918,52.656 L287.508,52.656 L287.508,97.234 L288.98,97.234 L288.98,109.996 L289.961,109.996 L289.961,97.234 L291.434,97.234 L291.434,109.996 L296.711,109.996 L296.711,109.289 L295.484,109.289 L295.484,106.715 L296.711,106.715 L296.711,105.719 L294.566,105.719 L294.566,103.145 L296.711,103.145 L296.711,102.152 L293.652,102.152 L293.652,99.574 L296.711,99.574 L296.711,98.582 L292.734,98.582 L292.734,96.004 L296.711,96.004 L296.711,95.012 L291.82,95.012 L291.82,92.434 L296.711,92.434 L296.711,91.441 L290.902,91.441 L290.902,88.867 L296.711,88.867 L296.711,87.871 L289.988,87.871 L289.988,85.297 L296.711,85.297 L296.711,84.305 L289.07,84.305 L289.07,81.727 L296.711,81.727 L296.711,80.711 L298.551,80.711 L298.551,75.883 L309.727,75.883 L309.727,54.02 L312.68,54.02 L312.68,50.277 L315.5,50.277 L315.5,48.07 L331.086,48.07 L331.086,50.277 L333.418,50.277 L333.418,54.02 L336.25,54.02 L336.25,83.387 L339.902,83.387 L339.902,106.254 L341.941,106.254 L341.941,105.332 L346.023,105.332 L346.023,103.859 L341.941,103.859 L341.941,102.035 L346.023,102.035 L346.023,100.562 L341.941,100.562 L341.941,98.742 L346.023,98.742 L346.023,97.27 L341.941,97.27 L341.941,95.445 L346.023,95.445 L346.023,93.973 L341.941,93.973 L341.941,92.148 L346.023,92.148 L346.023,90.676 L341.941,90.676 L341.941,88.855 L346.023,88.855 L346.023,87.383 L341.941,87.383 L341.941,85.559 L346.023,85.559 L346.023,84.086 L341.941,84.086 L341.941,82.262 L346.023,82.262 L346.023,80.789 L341.941,80.789 L341.941,78.684 L346.77,78.684 L346.77,74.453 L361.73,74.453 L361.73,78.684 L367.035,78.684 L367.035,97.234 L380.863,97.234 L380.863,96.25 L380.004,96.25 L380.004,93.676 L380.863,93.676 L380.863,92.691 L380.004,92.691 L380.004,90.117 L392.922,90.117 L392.922,85.699 L396.828,85.699 L396.828,82.273 L408.945,82.273 L408.945,85.699 L413.246,85.699 L413.246,97.234 L439.172,97.234 L439.172,109.996 z M166.289,47.855 L179.785,47.855 L179.785,45.062 L166.289,45.062 z M181.934,50.156 L163.805,50.156 L163.805,47.855 L166.289,47.855 L166.289,48.562 L179.785,48.562 L179.785,47.855 L181.934,47.855 L181.934,50.156" fill="#0A0B08"/>
  </g>
</svg>
